<?xml version="1.0" encoding="UTF-8"?>
<svg width="55px" height="115px" viewBox="0 0 55 115" version="1.1" xmlns="http://www.w3.org/2000/svg" xmlns:xlink="http://www.w3.org/1999/xlink">
    <!-- Generator: Sketch 53.2 (72643) - https://sketchapp.com -->
    <title>devine</title>
    <desc>Created with Sketch.</desc>
    <g id="Page-1" stroke="none" stroke-width="1" fill="none" fill-rule="evenodd">
        <g id="devine" fill="#000000" fill-rule="nonzero">
            <path d="M53.834738,32.5994225 L53.8241258,32.5890272 C53.7210148,32.4882694 53.6050982,32.4009255 53.4792305,32.3291468 C49.4306895,29.3353242 11.76281,1.51252511 6.69019518,0.0727875163 C2.40818662,-1.1382553 6.1065261,13.0875996 10.3248617,18.5606815 L36.2026259,43.3324843 L36.2556867,85.0692818 L27.521875,93.3906533 L18.6925537,85.1784316 L18.6182686,47.6309067 L6.33999373,35.0526938 C6.33999373,35.0526938 0.0151434205,27.6824847 0.0151434205,38.2856063 L0.0151434205,86.1503844 C0.0151434205,86.1503844 -0.49954658,90.0122076 4.4722527,95.2098163 L21.5578383,112.008487 C21.5578383,112.008487 26.9328998,118.739391 33.4859117,112.008487 C39.0831219,106.336431 44.766571,100.746645 50.5343547,95.241002 C50.5343547,95.241002 54.8481997,91.8521611 54.8481997,86.4258577 C54.8481997,81.0047518 54.9755457,37.9477618 54.9755457,37.9477618 C54.9755457,37.9477618 55.2673803,33.9767888 53.834738,32.5994225 Z" id="Path"></path>
        </g>
    </g>
</svg>